<svg version="1.1" id="Layer_1" xmlns="http://www.w3.org/2000/svg" xmlns:xlink="http://www.w3.org/1999/xlink" x="0px" y="0px"
	 width="100%" viewBox="0 0 500 500" enable-background="new 0 0 500 500" xml:space="preserve">
<path fill="#000000" opacity="1.000000" stroke="none" 
	d="
M1.000000,134.000000 
	C1.000000,89.344360 1.000000,45.188721 1.000000,1.016541 
	C167.614029,1.016541 334.228058,1.016541 500.921021,1.016541 
	C500.921021,167.572372 500.921021,334.144806 500.921021,500.858612 
	C334.333405,500.858612 167.666733,500.858612 1.000000,500.858612 
	C1.000000,378.771820 1.000000,256.635925 1.000000,134.000000 
M98.077934,22.029842 
	C91.388580,22.074129 84.699226,22.118416 77.081421,22.034422 
	C71.723053,22.076496 66.364693,22.118568 60.087864,22.035402 
	C56.060955,22.076962 52.034050,22.118521 47.155300,22.039871 
	C44.760056,22.321695 42.364811,22.603521 39.187538,22.965221 
	C32.452942,24.058516 27.313137,27.225460 24.300989,34.438675 
	C23.866093,36.354713 23.056736,38.270123 23.053490,40.186890 
	C23.015779,62.455746 23.099726,84.724800 23.031384,107.925636 
	C23.070419,117.950386 23.109455,127.975143 23.040688,138.930984 
	C23.075052,145.287445 23.109417,151.643921 23.038774,158.932053 
	C23.072460,165.953812 23.106146,172.975571 23.033913,180.901367 
	C23.067129,183.934586 23.100344,186.967819 23.033453,190.897308 
	C23.069563,193.600327 23.105673,196.303345 23.041571,199.857407 
	C23.073568,201.570740 23.105566,203.284073 23.038916,205.929718 
	C23.068220,212.284958 23.097525,218.640198 23.033136,225.929031 
	C23.062141,244.278732 23.091145,262.628448 23.024551,281.915588 
	C23.049955,300.272217 23.075361,318.628876 23.028358,337.922089 
	C23.019180,379.070862 23.273901,420.222443 22.841766,461.366760 
	C22.710258,473.887695 32.237164,483.169067 44.573044,483.148102 
	C183.346710,482.912292 322.120941,482.965057 460.894958,483.049469 
	C475.337006,483.058258 483.828705,475.161591 483.918274,460.439026 
	C484.132111,425.289856 483.935059,390.138214 483.969025,354.054260 
	C483.943207,340.699066 483.917419,327.343872 483.966278,313.055695 
	C483.937317,305.034546 483.908356,297.013397 483.955536,288.058838 
	C483.928009,276.702698 483.900513,265.346558 483.962585,253.061661 
	C483.930115,248.038925 483.897644,243.016174 483.955658,237.061218 
	C483.923096,230.037704 483.890503,223.014175 483.951660,215.059097 
	C483.919922,208.038559 483.888184,201.018005 483.959229,193.075546 
	C483.922455,189.050064 483.885651,185.024567 483.956360,180.115341 
	C483.919769,177.744583 483.883209,175.373810 483.953979,172.073151 
	C483.918976,166.713226 483.883972,161.353287 483.951904,155.062164 
	C483.915985,143.707672 483.880096,132.353195 483.956177,120.071648 
	C483.918243,115.381142 483.880310,110.690636 483.955231,105.069069 
	C483.917450,95.713791 483.879669,86.358521 483.955536,76.071877 
	C483.971008,66.928864 484.043823,57.785332 483.960754,48.643219 
	C483.940552,46.417866 483.407959,44.197170 483.022888,41.134521 
	C482.785126,29.349695 473.230316,21.479376 459.061676,22.045012 
	C452.368408,22.086378 445.675140,22.127745 438.053345,22.054379 
	C429.033142,22.094557 420.012970,22.134737 410.063171,22.052322 
	C399.372559,22.089884 388.681946,22.127445 377.062164,22.042372 
	C368.370819,22.083965 359.679474,22.125559 350.059662,22.044737 
	C336.037048,22.085505 322.014435,22.126272 307.063354,22.039930 
	C280.711639,22.082081 254.359940,22.124231 227.078918,22.025894 
	C213.056549,22.072525 199.034195,22.119156 184.082077,22.024462 
	C173.725647,22.071346 163.369202,22.118231 152.082458,22.026459 
	C142.058960,22.072300 132.035461,22.118141 121.081406,22.027967 
	C113.723824,22.071861 106.366241,22.115755 98.077934,22.029842 
z"/>
<path fill="#032E41" opacity="1.000000" stroke="none" 
	d="
M483.903961,354.987549 
	C483.935059,390.138214 484.132111,425.289856 483.918274,460.439026 
	C483.828705,475.161591 475.337006,483.058258 460.894958,483.049469 
	C322.120941,482.965057 183.346710,482.912292 44.573044,483.148102 
	C32.237164,483.169067 22.710258,473.887695 22.841766,461.366760 
	C23.273901,420.222443 23.019180,379.070862 23.425180,337.464630 
	C26.426409,338.391968 29.143347,339.601837 31.615562,341.192139 
	C41.776932,347.728546 51.648170,354.745728 62.039864,360.885803 
	C72.093719,366.826233 82.575928,372.065125 93.018547,377.316742 
	C101.434097,381.548950 109.832489,386.008545 118.667793,389.166016 
	C130.903656,393.538788 143.476212,397.026855 156.026505,400.446381 
	C168.764969,403.917145 181.651596,406.844238 194.530411,410.473694 
	C194.761749,423.613007 194.936005,436.288116 194.852753,449.113403 
	C195.077530,449.840027 195.559845,450.416443 196.244446,451.187378 
	C196.645828,451.888763 196.844925,452.395630 197.013031,453.263458 
	C197.883987,454.427216 198.785950,455.230011 200.029297,456.154022 
	C203.917389,457.579712 207.464081,458.884155 211.068848,460.520111 
	C214.328110,465.953613 219.051697,468.031921 224.949783,468.021973 
	C246.877029,467.985016 268.804413,468.025146 290.731689,467.999054 
	C300.325134,467.987640 306.988495,461.365845 307.055115,451.841309 
	C307.141083,439.553223 307.197266,427.264893 307.652405,414.993958 
	C309.652100,415.292328 311.334412,416.019379 312.868256,415.782959 
	C323.613068,414.126648 334.445923,412.786957 345.021851,410.352234 
	C358.945251,407.146912 372.710388,403.208832 386.444336,399.242096 
	C395.192383,396.715454 404.038605,394.200226 412.349091,390.557983 
	C427.755524,383.805847 442.902618,376.433807 457.956421,368.916748 
	C465.740875,365.029602 473.079224,360.252594 480.659515,355.948639 
	C481.614868,355.406189 482.816467,355.297333 483.903961,354.987549 
z"/>
<path fill="#103D54" opacity="1.000000" stroke="none" 
	d="
M483.872986,253.990417 
	C483.900513,265.346558 483.928009,276.702698 483.576050,288.571899 
	C468.659515,298.118683 454.350739,307.550598 439.511230,316.056671 
	C428.197968,322.541443 416.570587,328.784637 404.436066,333.454437 
	C388.442780,339.609222 371.828979,344.158966 355.458374,349.324036 
	C336.981262,355.153748 317.806641,357.461121 298.699646,359.737701 
	C293.163116,360.397308 290.334412,361.568054 290.269684,367.191162 
	C285.852112,362.633087 280.789337,360.983978 274.748230,361.036896 
	C255.108780,361.209015 235.461639,361.362030 215.828384,360.971741 
	C207.691254,360.809967 201.176086,362.951630 196.197113,369.119263 
	C195.493286,364.371124 191.664886,364.636871 188.832443,364.051758 
	C168.152664,359.779755 148.035416,353.652527 128.919525,344.737335 
	C110.757195,336.266876 92.458656,327.855377 75.209229,317.732330 
	C60.704731,309.220123 47.632847,298.269867 33.904106,288.430542 
	C30.353081,285.885529 26.717102,283.459076 23.120148,280.978149 
	C23.091145,262.628448 23.062141,244.278732 23.402140,225.521210 
	C37.441586,240.486145 52.226570,254.703339 68.843269,266.843567 
	C86.793205,279.957886 105.516464,291.799774 125.654831,301.464111 
	C147.563385,311.977936 170.308731,319.739655 194.011047,325.372375 
	C194.704773,326.122559 195.341614,326.561188 196.205948,327.247070 
	C199.838654,333.297028 205.083374,336.011078 211.743378,336.919586 
	C214.671356,342.409943 219.333572,344.044922 224.784760,344.051361 
	C246.107132,344.076538 267.429535,344.069397 288.751953,344.061951 
	C299.665588,344.058136 303.595795,341.263550 307.665070,330.990234 
	C317.070862,329.662140 326.216888,329.055542 334.956787,326.843933 
	C351.602722,322.631653 368.263550,318.211029 384.460999,312.565216 
	C402.447205,306.295959 419.700562,298.098083 435.539886,287.298126 
	C447.138062,279.389954 458.627991,271.323212 470.178040,263.344299 
	C474.726410,260.202271 479.307037,257.106995 483.872986,253.990417 
z"/>
<path fill="#09344A" opacity="1.000000" stroke="none" 
	d="
M23.072350,281.446869 
	C26.717102,283.459076 30.353081,285.885529 33.904106,288.430542 
	C47.632847,298.269867 60.704731,309.220123 75.209229,317.732330 
	C92.458656,327.855377 110.757195,336.266876 128.919525,344.737335 
	C148.035416,353.652527 168.152664,359.779755 188.832443,364.051758 
	C191.664886,364.636871 195.493286,364.371124 196.232971,369.272644 
	C196.356140,369.829224 196.095917,370.006958 195.783569,370.032043 
	C195.377228,370.728577 195.283249,371.400085 195.178650,372.538025 
	C194.987305,374.802521 194.665833,376.599213 194.649094,378.398743 
	C194.551025,388.935303 194.524185,399.472473 194.473328,410.009460 
	C181.651596,406.844238 168.764969,403.917145 156.026505,400.446381 
	C143.476212,397.026855 130.903656,393.538788 118.667793,389.166016 
	C109.832489,386.008545 101.434097,381.548950 93.018547,377.316742 
	C82.575928,372.065125 72.093719,366.826233 62.039864,360.885803 
	C51.648170,354.745728 41.776932,347.728546 31.615562,341.192139 
	C29.143347,339.601837 26.426409,338.391968 23.461384,336.996338 
	C23.075361,318.628876 23.049955,300.272217 23.072350,281.446869 
z"/>
<path fill="#164862" opacity="1.000000" stroke="none" 
	d="
M23.139832,179.997330 
	C23.106146,172.975571 23.072460,165.953812 23.417488,158.527100 
	C28.184641,163.898880 32.423561,169.796982 36.992783,175.426987 
	C46.372776,186.984650 55.323719,198.979660 65.597305,209.695969 
	C74.505013,218.987534 84.491188,227.449966 94.890709,235.063141 
	C115.422859,250.094116 137.416016,262.764435 161.274643,271.918152 
	C167.928940,274.471161 174.550751,277.269775 181.419800,279.068329 
	C195.305374,282.703979 209.289246,286.030762 223.352936,288.893646 
	C231.259293,290.503143 239.389374,291.117279 247.449234,291.837433 
	C254.378830,292.456635 261.357452,292.938110 268.303833,292.826172 
	C273.726532,292.738861 279.137360,291.063690 284.546082,291.103210 
	C308.568390,291.278870 331.440063,285.314880 354.105591,278.392181 
	C377.423492,271.270264 399.255676,260.790131 419.697052,247.527237 
	C428.732727,241.664658 438.008179,235.939163 446.105957,228.918579 
	C457.964478,218.637421 468.846588,207.231689 480.196045,196.358719 
	C481.225433,195.372513 482.627472,194.775314 483.856445,193.997467 
	C483.888184,201.018005 483.919922,208.038559 483.552124,215.533493 
	C482.011902,216.596558 480.670990,216.968750 479.762848,217.808807 
	C473.585083,223.523224 467.780365,229.676208 461.314850,235.035797 
	C452.148285,242.634460 443.023193,250.485565 432.960602,256.751770 
	C419.088013,265.390594 404.687592,273.356079 389.894501,280.289703 
	C377.047211,286.311310 363.584259,291.352264 349.943817,295.255615 
	C336.180786,299.194000 321.847015,301.116516 307.798706,304.089447 
	C301.780365,305.363068 295.851562,307.059814 289.580353,308.493774 
	C285.369385,304.641113 280.718201,303.179688 275.270966,303.194275 
	C255.867035,303.246155 236.462494,303.068604 217.025055,302.543518 
	C215.100845,301.091705 213.319504,299.668762 211.300919,299.122589 
	C198.058243,295.539551 184.447159,293.042267 171.560715,288.482513 
	C151.716537,281.460754 132.415970,273.168152 114.322952,261.952118 
	C97.474319,251.507462 81.484009,240.184692 67.115379,226.576065 
	C62.077740,221.804840 57.169426,216.887985 52.369808,211.876968 
	C46.896473,206.162567 41.593914,200.283905 36.248100,194.448273 
	C31.855173,189.652832 27.507545,184.815872 23.139832,179.997330 
z"/>
<path fill="#083349" opacity="1.000000" stroke="none" 
	d="
M483.936493,354.520905 
	C482.816467,355.297333 481.614868,355.406189 480.659515,355.948639 
	C473.079224,360.252594 465.740875,365.029602 457.956421,368.916748 
	C442.902618,376.433807 427.755524,383.805847 412.349091,390.557983 
	C404.038605,394.200226 395.192383,396.715454 386.444336,399.242096 
	C372.710388,403.208832 358.945251,407.146912 345.021851,410.352234 
	C334.445923,412.786957 323.613068,414.126648 312.868256,415.782959 
	C311.334412,416.019379 309.652100,415.292328 307.584351,414.530884 
	C307.066132,402.753052 307.002045,391.455566 307.207520,379.842346 
	C310.895447,379.035797 314.315582,378.556488 317.731995,378.052277 
	C341.813873,374.497925 365.615967,369.669983 388.631348,361.592377 
	C415.954895,352.002777 441.896576,339.497955 466.440857,324.093842 
	C472.130646,320.522888 478.068115,317.346588 483.891602,313.988678 
	C483.917419,327.343872 483.943207,340.699066 483.936493,354.520905 
z"/>
<path fill="#215E7E" opacity="1.000000" stroke="none" 
	d="
M459.991119,22.163151 
	C473.230316,21.479376 482.785126,29.349695 482.690155,41.622231 
	C481.585052,43.673618 480.409515,45.162266 480.102356,46.812531 
	C476.825256,64.420609 471.586182,81.272202 463.971832,97.613281 
	C455.990509,114.741974 445.954132,130.359268 434.476715,145.211578 
	C423.645020,159.228271 410.583710,171.093887 396.454742,181.428757 
	C381.817139,192.135651 366.171509,201.428314 349.042969,208.147232 
	C330.294250,215.501648 311.144531,220.735062 291.101196,222.536835 
	C291.509674,213.756180 290.901245,205.936783 282.025055,202.025879 
	C283.760559,201.264938 285.074188,200.402466 286.501709,200.124268 
	C295.556976,198.359604 304.642090,196.748947 313.708557,195.040741 
	C331.519012,191.685043 347.841034,184.268799 363.483917,175.582031 
	C390.479187,160.591080 412.005981,139.472137 428.986938,113.793869 
	C433.536926,106.913544 437.512085,99.545235 440.862610,92.006042 
	C445.350433,81.907745 449.910431,71.673302 452.726013,61.043465 
	C456.092560,48.333626 457.650055,35.144615 459.991119,22.163151 
z"/>
<path fill="#1B5270" opacity="1.000000" stroke="none" 
	d="
M23.151440,106.993805 
	C23.099726,84.724800 23.015779,62.455746 23.053490,40.186890 
	C23.056736,38.270123 23.866093,36.354713 24.902950,34.452522 
	C26.338440,39.172848 27.204569,43.873825 27.999922,48.586750 
	C31.692150,70.465309 38.062511,91.585037 47.904911,111.419128 
	C57.196754,130.143738 68.390427,147.692047 81.951332,163.850143 
	C93.249268,177.311859 106.096283,188.954147 119.743599,199.661072 
	C137.943054,213.939316 157.953552,225.490036 179.840134,233.256607 
	C189.940186,236.840652 200.500320,239.128220 210.960480,242.461044 
	C210.999374,249.613907 210.929626,256.309326 210.473816,262.996887 
	C199.478317,259.861237 188.684006,257.245483 178.299301,253.495453 
	C158.796814,246.452881 140.171341,237.321320 123.243469,225.352402 
	C109.761650,215.820038 96.506912,205.731186 84.439667,194.504623 
	C73.950661,184.746353 64.376953,173.685669 56.026649,162.033890 
	C47.113464,149.596649 40.099926,135.796921 32.275536,122.581093 
	C29.208424,117.400574 26.191320,112.190445 23.151440,106.993805 
z"/>
<path fill="#174B66" opacity="1.000000" stroke="none" 
	d="
M483.907837,193.536499 
	C482.627472,194.775314 481.225433,195.372513 480.196045,196.358719 
	C468.846588,207.231689 457.964478,218.637421 446.105957,228.918579 
	C438.008179,235.939163 428.732727,241.664658 419.697052,247.527237 
	C399.255676,260.790131 377.423492,271.270264 354.105591,278.392181 
	C331.440063,285.314880 308.568390,291.278870 284.546082,291.103210 
	C279.137360,291.063690 273.726532,292.738861 268.303833,292.826172 
	C261.357452,292.938110 254.378830,292.456635 247.449234,291.837433 
	C239.389374,291.117279 231.259293,290.503143 223.352936,288.893646 
	C209.289246,286.030762 195.305374,282.703979 181.419800,279.068329 
	C174.550751,277.269775 167.928940,274.471161 161.274643,271.918152 
	C137.416016,262.764435 115.422859,250.094116 94.890709,235.063141 
	C84.491188,227.449966 74.505013,218.987534 65.597305,209.695969 
	C55.323719,198.979660 46.372776,186.984650 36.992783,175.426987 
	C32.423561,169.796982 28.184641,163.898880 23.469990,158.061264 
	C23.109417,151.643921 23.075052,145.287445 23.431297,138.511810 
	C24.370901,138.442413 25.120956,138.663620 25.439064,139.161041 
	C31.205048,148.177505 36.711349,157.367935 42.711334,166.224319 
	C47.314697,173.019196 52.080505,179.805984 57.575077,185.870682 
	C65.341606,194.443100 73.408554,202.853012 82.145615,210.409042 
	C93.312561,220.066513 104.669441,229.751190 117.062965,237.674667 
	C129.659256,245.727814 143.652313,251.583206 156.966492,258.529846 
	C172.947067,266.867737 190.315781,270.971405 207.616745,275.254181 
	C209.679642,275.764862 212.049393,275.035919 214.582092,274.955383 
	C215.919067,275.748047 216.950882,276.466858 217.985168,277.458954 
	C218.635071,277.872925 219.282501,278.013580 220.359512,278.183594 
	C222.220581,278.309692 223.652054,278.406433 225.237244,278.791748 
	C227.073547,284.255676 230.868515,286.166626 236.047272,286.152344 
	C249.159607,286.116180 262.282257,285.852539 275.380249,286.291656 
	C281.674744,286.502686 286.333923,284.728607 289.827362,279.794037 
	C291.964508,281.056396 294.003662,282.851440 295.862823,282.681183 
	C300.575867,282.249603 305.188171,280.822083 309.877228,280.001434 
	C318.316010,278.524475 326.928894,277.775238 335.196594,275.658203 
	C344.465363,273.284760 353.652710,270.258453 362.476166,266.562805 
	C374.487305,261.532043 385.931854,255.140686 397.970337,250.185333 
	C409.166595,245.576645 418.298279,237.949493 428.145325,231.377380 
	C434.478912,227.150238 440.502838,222.360901 446.196533,217.296249 
	C454.703674,209.729004 462.839569,201.740875 471.050659,193.845703 
	C475.406799,189.657181 479.588440,185.287170 483.848877,180.999084 
	C483.885651,185.024567 483.922455,189.050064 483.907837,193.536499 
z"/>
<path fill="#1E5775" opacity="1.000000" stroke="none" 
	d="
M210.851852,242.003616 
	C200.500320,239.128220 189.940186,236.840652 179.840134,233.256607 
	C157.953552,225.490036 137.943054,213.939316 119.743599,199.661072 
	C106.096283,188.954147 93.249268,177.311859 81.951332,163.850143 
	C68.390427,147.692047 57.196754,130.143738 47.904911,111.419128 
	C38.062511,91.585037 31.692150,70.465309 27.999922,48.586750 
	C27.204569,43.873825 26.338440,39.172848 25.206221,34.206978 
	C27.313137,27.225460 32.452942,24.058516 39.588257,23.399004 
	C41.083744,33.011139 41.716446,42.275436 43.403233,51.343666 
	C45.090115,60.412376 47.356564,69.441895 50.251183,78.196907 
	C52.841591,86.031792 56.643997,93.464973 59.893406,101.083168 
	C67.019196,117.789467 76.432327,133.132568 87.812515,147.242859 
	C91.735046,152.106400 96.410995,156.356049 100.440292,161.140854 
	C113.397354,176.527481 128.706329,189.255356 145.740799,199.682343 
	C157.022369,206.587906 168.962662,212.616364 181.132675,217.807571 
	C190.620834,221.854843 200.917328,224.007141 210.964661,227.456482 
	C211.000443,232.608810 210.926147,237.306213 210.851852,242.003616 
z"/>
<path fill="#0D384E" opacity="1.000000" stroke="none" 
	d="
M483.928955,313.522186 
	C478.068115,317.346588 472.130646,320.522888 466.440857,324.093842 
	C441.896576,339.497955 415.954895,352.002777 388.631348,361.592377 
	C365.615967,369.669983 341.813873,374.497925 317.731995,378.052277 
	C314.315582,378.556488 310.895447,379.035797 306.947449,379.617188 
	C303.714386,373.973602 299.346405,370.337250 292.992981,368.753021 
	C292.148834,368.029846 291.376465,367.666351 290.599426,367.276611 
	C290.594727,367.250397 290.581299,367.304382 290.581299,367.304382 
	C290.334412,361.568054 293.163116,360.397308 298.699646,359.737701 
	C317.806641,357.461121 336.981262,355.153748 355.458374,349.324036 
	C371.828979,344.158966 388.442780,339.609222 404.436066,333.454437 
	C416.570587,328.784637 428.197968,322.541443 439.511230,316.056671 
	C454.350739,307.550598 468.659515,298.118683 483.537964,289.038605 
	C483.908356,297.013397 483.937317,305.034546 483.928955,313.522186 
z"/>
<path fill="#1A516F" opacity="1.000000" stroke="none" 
	d="
M483.844177,120.998703 
	C483.880096,132.353195 483.915985,143.707672 483.568359,155.572540 
	C481.499878,157.634750 479.581085,159.001160 478.175537,160.774414 
	C474.476746,165.440735 471.481659,170.756165 467.344666,174.966385 
	C455.895813,186.617950 444.816467,198.858017 432.078217,208.957306 
	C417.765839,220.304642 402.066772,229.999939 386.472961,239.605423 
	C372.176819,248.411591 356.396271,254.454865 340.208374,258.572723 
	C324.099213,262.670563 307.521606,264.926788 291.096161,267.525818 
	C291.079529,261.371552 291.116150,255.682022 291.581360,249.994904 
	C306.712738,247.031281 321.603851,244.776367 336.076599,240.942215 
	C361.463501,234.216644 384.831696,222.595520 406.295898,207.628876 
	C421.455109,197.058609 435.549896,185.084702 447.771851,170.934280 
	C460.372009,156.345917 471.977692,141.183746 481.000580,124.109962 
	C481.635925,122.907722 482.882050,122.028259 483.844177,120.998703 
z"/>
<path fill="#184D69" opacity="1.000000" stroke="none" 
	d="
M214.276901,274.881531 
	C212.049393,275.035919 209.679642,275.764862 207.616745,275.254181 
	C190.315781,270.971405 172.947067,266.867737 156.966492,258.529846 
	C143.652313,251.583206 129.659256,245.727814 117.062965,237.674667 
	C104.669441,229.751190 93.312561,220.066513 82.145615,210.409042 
	C73.408554,202.853012 65.341606,194.443100 57.575077,185.870682 
	C52.080505,179.805984 47.314697,173.019196 42.711334,166.224319 
	C36.711349,157.367935 31.205048,148.177505 25.439064,139.161041 
	C25.120956,138.663620 24.370901,138.442413 23.485199,138.046265 
	C23.109455,127.975143 23.070419,117.950386 23.091412,107.459717 
	C26.191320,112.190445 29.208424,117.400574 32.275536,122.581093 
	C40.099926,135.796921 47.113464,149.596649 56.026649,162.033890 
	C64.376953,173.685669 73.950661,184.746353 84.439667,194.504623 
	C96.506912,205.731186 109.761650,215.820038 123.243469,225.352402 
	C140.171341,237.321320 158.796814,246.452881 178.299301,253.495453 
	C188.684006,257.245483 199.478317,259.861237 210.582458,263.386047 
	C211.048126,264.857330 211.019073,265.931580 210.740311,267.208801 
	C211.172943,268.971313 211.855286,270.530853 212.742065,272.354675 
	C213.389969,273.373138 213.833435,274.127319 214.276901,274.881531 
z"/>
<path fill="#13435D" opacity="1.000000" stroke="none" 
	d="
M289.882080,308.564331 
	C295.851562,307.059814 301.780365,305.363068 307.798706,304.089447 
	C321.847015,301.116516 336.180786,299.194000 349.943817,295.255615 
	C363.584259,291.352264 377.047211,286.311310 389.894501,280.289703 
	C404.687592,273.356079 419.088013,265.390594 432.960602,256.751770 
	C443.023193,250.485565 452.148285,242.634460 461.314850,235.035797 
	C467.780365,229.676208 473.585083,223.523224 479.762848,217.808807 
	C480.670990,216.968750 482.011902,216.596558 483.505249,215.999268 
	C483.890503,223.014175 483.923096,230.037704 483.555359,237.535248 
	C479.435303,241.136459 475.888153,244.501556 471.964569,247.347733 
	C458.295715,257.263123 444.943634,267.721588 430.612823,276.585999 
	C417.972992,284.404449 404.419983,290.890015 390.832367,296.988708 
	C379.367218,302.134796 367.526886,306.855621 355.396057,310.007324 
	C339.130371,314.233276 322.424805,316.766083 305.652771,319.820007 
	C302.173401,314.667725 297.593536,311.857269 291.480011,310.873779 
	C290.741455,310.035522 290.311768,309.299927 289.882080,308.564331 
z"/>
<path fill="#246284" opacity="1.000000" stroke="none" 
	d="
M459.526398,22.104080 
	C457.650055,35.144615 456.092560,48.333626 452.726013,61.043465 
	C449.910431,71.673302 445.350433,81.907745 440.862610,92.006042 
	C437.512085,99.545235 433.536926,106.913544 428.986938,113.793869 
	C412.005981,139.472137 390.479187,160.591080 363.483917,175.582031 
	C347.841034,184.268799 331.519012,191.685043 313.708557,195.040741 
	C304.642090,196.748947 295.556976,198.359604 286.501709,200.124268 
	C285.074188,200.402466 283.760559,201.264938 281.666962,202.018005 
	C279.968933,202.151306 278.998230,202.123856 277.752106,202.059677 
	C277.105255,202.012375 276.733856,202.001770 276.177124,201.696671 
	C274.654633,199.620178 273.317444,197.838196 271.900513,195.781189 
	C271.546478,195.004715 271.272186,194.503281 271.303894,193.772049 
	C273.082153,193.027954 274.517181,192.273010 276.032776,192.038101 
	C286.450806,190.423233 296.974609,189.359772 307.297058,187.285980 
	C330.347260,182.655197 351.336334,173.084930 370.625763,159.671005 
	C384.987244,149.684021 397.796661,138.003540 408.842377,124.478561 
	C412.074646,120.520798 414.304962,115.744728 417.363831,111.221092 
	C426.032410,109.095749 431.082153,102.855263 431.140625,94.366272 
	C431.197784,86.066643 431.294464,77.762939 431.098450,69.467529 
	C430.977875,64.365486 430.340942,59.275642 430.121765,53.878643 
	C431.868225,51.175732 433.917999,48.950359 434.861084,46.327141 
	C435.951843,43.293053 436.074097,39.909672 436.606659,36.676273 
	C437.403076,31.841318 438.190582,27.004902 438.981873,22.169109 
	C445.675140,22.127745 452.368408,22.086378 459.526398,22.104080 
z"/>
<path fill="#205C7B" opacity="1.000000" stroke="none" 
	d="
M48.007141,22.160080 
	C52.034050,22.118521 56.060955,22.076962 60.545071,22.534695 
	C62.111156,32.191948 62.739296,41.445080 64.525780,50.468895 
	C65.460129,55.188416 68.429710,59.505013 70.562927,64.465027 
	C70.788231,73.940720 70.930710,82.954971 70.830811,92.136505 
	C71.077797,92.868820 71.567154,93.433846 72.254005,94.200096 
	C72.640785,94.916870 72.830086,95.432411 73.015060,96.322350 
	C73.767967,97.397552 74.525185,98.098358 75.224365,98.817062 
	C75.166328,98.834953 75.201073,98.718567 75.177277,99.090889 
	C76.118973,99.969254 77.084465,100.475296 78.332375,100.991241 
	C79.076797,101.318954 79.538795,101.636772 80.029404,102.255142 
	C80.714531,102.681602 81.371056,102.807503 82.455704,102.909683 
	C84.289398,103.108192 85.694969,103.330414 87.135880,103.846741 
	C87.208992,104.725983 87.246773,105.311127 86.945908,105.952255 
	C86.535133,107.002724 86.019318,108.296799 86.457939,108.946472 
	C92.353325,117.678497 98.370239,126.328690 104.379753,134.983383 
	C114.993370,150.268707 128.583313,162.673447 143.445419,173.531265 
	C163.625259,188.274063 185.511871,199.886795 209.993927,206.440582 
	C210.308060,209.584412 210.617035,212.290512 210.983505,215.257050 
	C210.982742,215.685532 210.924484,215.853531 210.644333,216.198944 
	C210.276627,216.915863 210.130798,217.455368 209.585281,217.995697 
	C208.522430,217.956787 207.788513,218.090073 207.206482,217.852020 
	C193.139542,212.097977 178.827209,206.853439 165.126709,200.325760 
	C155.908447,195.933701 147.153534,190.267014 138.918045,184.186325 
	C127.002960,175.388779 115.021194,166.561951 105.814880,154.593796 
	C98.783836,145.453461 90.024132,137.433365 84.183998,127.633331 
	C74.315063,111.072746 65.265160,94.065445 59.266251,75.376999 
	C53.655605,57.898129 51.285576,39.991428 48.007141,22.160080 
z"/>
<path fill="#12415B" opacity="1.000000" stroke="none" 
	d="
M193.954163,325.060822 
	C170.308731,319.739655 147.563385,311.977936 125.654831,301.464111 
	C105.516464,291.799774 86.793205,279.957886 68.843269,266.843567 
	C52.226570,254.703339 37.441586,240.486145 23.448986,225.054413 
	C23.097525,218.640198 23.068220,212.284958 23.419418,205.505661 
	C29.735498,211.159164 35.566391,217.344177 41.649166,223.270676 
	C44.873615,226.412231 48.535557,229.104767 52.250038,232.000000 
	C52.666767,232.000000 52.833462,232.000000 53.036652,232.350128 
	C57.549450,237.708664 61.505424,243.345779 66.622093,247.580414 
	C74.609001,254.190491 83.130592,260.245758 91.882591,265.818481 
	C104.687561,273.971832 117.865662,281.408752 131.502792,288.280365 
	C149.145004,297.170166 167.466568,303.289795 186.234619,308.736267 
	C189.488327,309.680481 192.263397,312.274139 195.260498,314.500824 
	C195.183502,318.261414 195.105560,321.627136 194.758636,325.000214 
	C194.311172,325.025330 194.132675,325.043091 193.954163,325.060822 
z"/>
<path fill="#1F5977" opacity="1.000000" stroke="none" 
	d="
M291.158386,222.991074 
	C311.144531,220.735062 330.294250,215.501648 349.042969,208.147232 
	C366.171509,201.428314 381.817139,192.135651 396.454742,181.428757 
	C410.583710,171.093887 423.645020,159.228271 434.476715,145.211578 
	C445.954132,130.359268 455.990509,114.741974 463.971832,97.613281 
	C471.586182,81.272202 476.825256,64.420609 480.102356,46.812531 
	C480.409515,45.162266 481.585052,43.673618 482.734192,42.042133 
	C483.407959,44.197170 483.940552,46.417866 483.960754,48.643219 
	C484.043823,57.785332 483.971008,66.928864 483.552704,76.618988 
	C481.531067,81.275627 479.784668,85.340164 478.316803,89.502907 
	C473.436249,103.343735 466.577362,116.207916 458.311707,128.234268 
	C451.312561,138.417923 443.964508,148.442566 435.910126,157.796448 
	C428.508759,166.392090 420.538361,174.707245 411.777588,181.873260 
	C398.983307,192.338638 385.397919,201.698807 370.362701,209.096252 
	C353.648895,217.319580 336.701691,224.567169 318.526184,228.574951 
	C309.516052,230.561737 300.286682,231.554184 291.098419,232.545349 
	C291.079681,229.059830 291.119049,226.025452 291.158386,222.991074 
z"/>
<path fill="#1F5977" opacity="1.000000" stroke="none" 
	d="
M47.581223,22.099976 
	C51.285576,39.991428 53.655605,57.898129 59.266251,75.376999 
	C65.265160,94.065445 74.315063,111.072746 84.183998,127.633331 
	C90.024132,137.433365 98.783836,145.453461 105.814880,154.593796 
	C115.021194,166.561951 127.002960,175.388779 138.918045,184.186325 
	C147.153534,190.267014 155.908447,195.933701 165.126709,200.325760 
	C178.827209,206.853439 193.139542,212.097977 207.206482,217.852020 
	C207.788513,218.090073 208.522430,217.956787 209.805328,218.002808 
	C210.425079,218.009094 210.865036,218.005753 210.969116,218.445831 
	C211.000320,221.591110 210.927460,224.296326 210.854599,227.001541 
	C200.917328,224.007141 190.620834,221.854843 181.132675,217.807571 
	C168.962662,212.616364 157.022369,206.587906 145.740799,199.682343 
	C128.706329,189.255356 113.397354,176.527481 100.440292,161.140854 
	C96.410995,156.356049 91.735046,152.106400 87.812515,147.242859 
	C76.432327,133.132568 67.019196,117.789467 59.893406,101.083168 
	C56.643997,93.464973 52.841591,86.031792 50.251183,78.196907 
	C47.356564,69.441895 45.090115,60.412376 43.403233,51.343666 
	C41.716446,42.275436 41.083744,33.011139 39.979271,23.359066 
	C42.364811,22.603521 44.760056,22.321695 47.581223,22.099976 
z"/>
<path fill="#1E5775" opacity="1.000000" stroke="none" 
	d="
M291.156494,232.996506 
	C300.286682,231.554184 309.516052,230.561737 318.526184,228.574951 
	C336.701691,224.567169 353.648895,217.319580 370.362701,209.096252 
	C385.397919,201.698807 398.983307,192.338638 411.777588,181.873260 
	C420.538361,174.707245 428.508759,166.392090 435.910126,157.796448 
	C443.964508,148.442566 451.312561,138.417923 458.311707,128.234268 
	C466.577362,116.207916 473.436249,103.343735 478.316803,89.502907 
	C479.784668,85.340164 481.531067,81.275627 483.495880,77.084671 
	C483.879669,86.358521 483.917450,95.713791 483.561462,105.579857 
	C481.876831,107.524742 480.182220,108.759018 479.358093,110.424118 
	C471.840240,125.613945 462.840271,139.771133 452.615234,153.354919 
	C439.710724,170.498306 424.089783,184.728821 407.291656,197.566238 
	C392.611237,208.785248 376.274048,217.597397 359.207397,224.990173 
	C337.421600,234.427170 314.627777,239.486832 291.097595,241.550018 
	C291.079071,238.400787 291.117767,235.698639 291.156494,232.996506 
z"/>
<path fill="#12405A" opacity="1.000000" stroke="none" 
	d="
M305.908081,320.025848 
	C322.424805,316.766083 339.130371,314.233276 355.396057,310.007324 
	C367.526886,306.855621 379.367218,302.134796 390.832367,296.988708 
	C404.419983,290.890015 417.972992,284.404449 430.612823,276.585999 
	C444.943634,267.721588 458.295715,257.263123 471.964569,247.347733 
	C475.888153,244.501556 479.435303,241.136459 483.510101,238.001373 
	C483.897644,243.016174 483.930115,248.038925 483.917786,253.526031 
	C479.307037,257.106995 474.726410,260.202271 470.178040,263.344299 
	C458.627991,271.323212 447.138062,279.389954 435.539886,287.298126 
	C419.700562,298.098083 402.447205,306.295959 384.460999,312.565216 
	C368.263550,318.211029 351.602722,322.631653 334.956787,326.843933 
	C326.216888,329.055542 317.070862,329.662140 307.616272,330.549133 
	C306.718933,326.745117 306.313507,323.385498 305.908081,320.025848 
z"/>
<path fill="#184D69" opacity="1.000000" stroke="none" 
	d="
M291.149414,267.990540 
	C307.521606,264.926788 324.099213,262.670563 340.208374,258.572723 
	C356.396271,254.454865 372.176819,248.411591 386.472961,239.605423 
	C402.066772,229.999939 417.765839,220.304642 432.078217,208.957306 
	C444.816467,198.858017 455.895813,186.617950 467.344666,174.966385 
	C471.481659,170.756165 474.476746,165.440735 478.175537,160.774414 
	C479.581085,159.001160 481.499878,157.634750 483.516907,156.038147 
	C483.883972,161.353287 483.918976,166.713226 483.558411,172.580566 
	C481.814453,173.985352 480.248657,174.674850 479.156433,175.817154 
	C475.074036,180.086731 473.497559,186.980453 466.287231,187.963226 
	C466.010132,188.001007 465.669586,188.307770 465.538788,188.576767 
	C462.280121,195.280884 456.920776,200.018127 451.773987,205.303345 
	C441.730255,215.617188 429.688995,223.017242 418.499603,231.652084 
	C417.758759,232.223816 416.640259,232.733337 415.767822,232.636581 
	C410.915466,232.098312 408.103790,234.513290 405.530762,238.360764 
	C403.980835,240.678329 401.231689,242.322357 398.768707,243.865616 
	C396.168396,245.494934 393.249207,246.608627 390.501984,248.011581 
	C384.697815,250.975632 379.197388,254.976044 373.052612,256.720795 
	C365.192596,258.952576 357.200928,260.367920 350.354919,265.239624 
	C349.055725,266.164154 347.339355,266.582153 345.755219,267.011688 
	C340.995361,268.302368 336.265503,270.026825 331.411560,270.561310 
	C326.049896,271.151703 320.778778,275.457977 315.718292,271.679108 
	C313.667419,272.610657 312.089294,273.854889 310.420013,273.992310 
	C304.005219,274.520416 297.561188,274.693878 291.081604,274.563354 
	C291.073242,272.081573 291.111328,270.036041 291.149414,267.990540 
z"/>
<path fill="#1E5573" opacity="1.000000" stroke="none" 
	d="
M291.154846,241.997101 
	C314.627777,239.486832 337.421600,234.427170 359.207397,224.990173 
	C376.274048,217.597397 392.611237,208.785248 407.291656,197.566238 
	C424.089783,184.728821 439.710724,170.498306 452.615234,153.354919 
	C462.840271,139.771133 471.840240,125.613945 479.358093,110.424118 
	C480.182220,108.759018 481.876831,107.524742 483.505066,106.045387 
	C483.880310,110.690636 483.918243,115.381142 483.900177,120.535172 
	C482.882050,122.028259 481.635925,122.907722 481.000580,124.109962 
	C471.977692,141.183746 460.372009,156.345917 447.771851,170.934280 
	C435.549896,185.084702 421.455109,197.058609 406.295898,207.628876 
	C384.831696,222.595520 361.463501,234.216644 336.076599,240.942215 
	C321.603851,244.776367 306.712738,247.031281 291.526550,249.553696 
	C291.080353,246.739090 291.117615,244.368088 291.154846,241.997101 
z"/>
<path fill="#14445E" opacity="1.000000" stroke="none" 
	d="
M23.086872,180.449341 
	C27.507545,184.815872 31.855173,189.652832 36.248100,194.448273 
	C41.593914,200.283905 46.896473,206.162567 52.369808,211.876968 
	C57.169426,216.887985 62.077740,221.804840 67.115379,226.576065 
	C81.484009,240.184692 97.474319,251.507462 114.322952,261.952118 
	C132.415970,273.168152 151.716537,281.460754 171.560715,288.482513 
	C184.447159,293.042267 198.058243,295.539551 211.300919,299.122589 
	C213.319504,299.668762 215.100845,301.091705 216.614960,302.628845 
	C211.655197,303.845184 207.072403,304.541840 202.150330,305.047699 
	C200.415268,304.024811 199.116791,302.868744 197.607254,302.415466 
	C190.164902,300.180542 182.441879,298.709198 175.232727,295.902740 
	C157.800705,289.116638 139.960724,282.947632 123.488731,274.250427 
	C107.769997,265.950958 93.181213,255.301254 78.808029,244.717346 
	C61.278141,231.808960 45.964691,216.418304 32.469643,199.251160 
	C29.782963,195.833420 26.267080,193.067520 23.133560,190.001038 
	C23.100344,186.967819 23.067129,183.934586 23.086872,180.449341 
z"/>
<path fill="#184D69" opacity="1.000000" stroke="none" 
	d="
M291.128082,274.999634 
	C297.561188,274.693878 304.005219,274.520416 310.420013,273.992310 
	C312.089294,273.854889 313.667419,272.610657 315.718292,271.679108 
	C320.778778,275.457977 326.049896,271.151703 331.411560,270.561310 
	C336.265503,270.026825 340.995361,268.302368 345.755219,267.011688 
	C347.339355,266.582153 349.055725,266.164154 350.354919,265.239624 
	C357.200928,260.367920 365.192596,258.952576 373.052612,256.720795 
	C379.197388,254.976044 384.697815,250.975632 390.501984,248.011581 
	C393.249207,246.608627 396.168396,245.494934 398.768707,243.865616 
	C401.231689,242.322357 403.980835,240.678329 405.530762,238.360764 
	C408.103790,234.513290 410.915466,232.098312 415.767822,232.636581 
	C416.640259,232.733337 417.758759,232.223816 418.499603,231.652084 
	C429.688995,223.017242 441.730255,215.617188 451.773987,205.303345 
	C456.920776,200.018127 462.280121,195.280884 465.538788,188.576767 
	C465.669586,188.307770 466.010132,188.001007 466.287231,187.963226 
	C473.497559,186.980453 475.074036,180.086731 479.156433,175.817154 
	C480.248657,174.674850 481.814453,173.985352 483.504761,173.045532 
	C483.883209,175.373810 483.919769,177.744583 483.902588,180.557220 
	C479.588440,185.287170 475.406799,189.657181 471.050659,193.845703 
	C462.839569,201.740875 454.703674,209.729004 446.196533,217.296249 
	C440.502838,222.360901 434.478912,227.150238 428.145325,231.377380 
	C418.298279,237.949493 409.166595,245.576645 397.970337,250.185333 
	C385.931854,255.140686 374.487305,261.532043 362.476166,266.562805 
	C353.652710,270.258453 344.465363,273.284760 335.196594,275.658203 
	C326.928894,277.775238 318.316010,278.524475 309.877228,280.001434 
	C305.188171,280.822083 300.575867,282.249603 295.862823,282.681183 
	C294.003662,282.851440 291.964508,281.056396 289.967316,279.505188 
	C290.327606,277.569275 290.727844,276.284424 291.128082,274.999634 
z"/>
<path fill="#13435D" opacity="1.000000" stroke="none" 
	d="
M23.083508,190.449173 
	C26.267080,193.067520 29.782963,195.833420 32.469643,199.251160 
	C45.964691,216.418304 61.278141,231.808960 78.808029,244.717346 
	C93.181213,255.301254 107.769997,265.950958 123.488731,274.250427 
	C139.960724,282.947632 157.800705,289.116638 175.232727,295.902740 
	C182.441879,298.709198 190.164902,300.180542 197.607254,302.415466 
	C199.116791,302.868744 200.415268,304.024811 202.001633,305.347168 
	C200.813522,306.898438 199.434830,307.959473 197.692963,308.955017 
	C194.914368,307.928650 192.552902,306.787048 190.071732,306.046692 
	C185.678146,304.735809 181.117874,303.939423 176.796768,302.439606 
	C169.361954,299.859100 162.049805,296.923218 154.699692,294.101257 
	C145.496750,290.567902 135.774582,287.960266 127.233963,283.225891 
	C113.545784,275.638062 100.344604,267.059875 87.505852,258.087189 
	C77.374268,251.006516 68.128777,242.663101 58.410419,234.980850 
	C56.817146,233.721390 54.813919,232.980530 53.000153,232.000000 
	C52.833462,232.000000 52.666767,232.000000 52.215263,231.655457 
	C44.086052,222.173004 36.273777,213.007141 28.369879,203.920959 
	C26.807997,202.125473 24.893612,200.636627 23.141785,199.006363 
	C23.105673,196.303345 23.069563,193.600327 23.083508,190.449173 
z"/>
<path fill="#3583AC" opacity="1.000000" stroke="none" 
	d="
M228.008209,22.166386 
	C254.359940,22.124231 280.711639,22.082081 307.521057,22.483311 
	C306.467834,26.304234 304.930542,29.670343 303.459290,33.065079 
	C302.894318,34.368710 302.479919,35.737591 301.536957,37.175961 
	C278.719055,37.208374 256.361023,37.141560 234.001648,36.680084 
	C232.653732,33.353733 231.259872,30.442520 229.978622,27.482563 
	C229.228973,25.750692 228.659012,23.941044 228.008209,22.166386 
z"/>
<path fill="#317EA6" opacity="1.000000" stroke="none" 
	d="
M227.543564,22.096142 
	C228.659012,23.941044 229.228973,25.750692 229.978622,27.482563 
	C231.259872,30.442520 232.653732,33.353733 233.540192,36.772537 
	C217.721390,37.199387 202.362701,37.139122 187.001862,36.660316 
	C186.337082,31.549776 185.674454,26.857780 185.011826,22.165785 
	C199.034195,22.119156 213.056549,22.072525 227.543564,22.096142 
z"/>
<path fill="#2F6C8C" opacity="1.000000" stroke="none" 
	d="
M438.517609,22.111744 
	C438.190582,27.004902 437.403076,31.841318 436.606659,36.676273 
	C436.074097,39.909672 435.951843,43.293053 434.861084,46.327141 
	C433.917999,48.950359 431.868225,51.175732 429.849152,53.667583 
	C426.113373,49.086758 422.309784,45.313286 415.683411,45.715210 
	C413.936646,43.725330 412.465454,41.905991 410.951965,39.676052 
	C410.937378,33.568607 410.965057,27.871761 410.992767,22.174915 
	C420.012970,22.134737 429.033142,22.094557 438.517609,22.111744 
z"/>
<path fill="#317EA6" opacity="1.000000" stroke="none" 
	d="
M301.996857,37.076729 
	C302.479919,35.737591 302.894318,34.368710 303.459290,33.065079 
	C304.930542,29.670343 306.467834,26.304234 307.985291,22.546867 
	C322.014435,22.126272 336.037048,22.085505 350.526733,22.486687 
	C349.327911,27.645117 347.661987,32.361599 345.536926,37.180923 
	C330.717438,37.214756 316.357147,37.145741 301.996857,37.076729 
z"/>
<path fill="#2C7295" opacity="1.000000" stroke="none" 
	d="
M410.527954,22.113619 
	C410.965057,27.871761 410.937378,33.568607 410.575653,39.628731 
	C406.596039,39.110325 402.984283,37.692837 399.297668,37.459789 
	C391.885956,36.991249 384.433380,37.168556 376.998474,36.636421 
	C377.329926,31.517326 377.660645,26.841167 377.991333,22.165009 
	C388.681946,22.127445 399.372559,22.089884 410.527954,22.113619 
z"/>
<path fill="#2E779D" opacity="1.000000" stroke="none" 
	d="
M184.546951,22.095123 
	C185.674454,26.857780 186.337082,31.549776 186.540649,36.754517 
	C175.389084,37.204479 164.696625,37.141693 154.001633,36.647198 
	C153.670334,31.532030 153.341553,26.848574 153.012772,22.165115 
	C163.369202,22.118231 173.725647,22.071346 184.546951,22.095123 
z"/>
<path fill="#245F7F" opacity="1.000000" stroke="none" 
	d="
M70.480118,64.003586 
	C68.429710,59.505013 65.460129,55.188416 64.525780,50.468895 
	C62.739296,41.445080 62.111156,32.191948 61.004303,22.597315 
	C66.364693,22.118568 71.723053,22.076496 77.554474,22.504463 
	C78.505013,28.781830 81.757561,34.738861 76.978134,40.541359 
	C75.953835,41.559246 75.045929,42.304642 73.752213,43.099075 
	C72.993988,43.999321 72.621559,44.850533 72.281204,46.090477 
	C71.702225,52.320667 71.091171,58.162125 70.480118,64.003586 
z"/>
<path fill="#297094" opacity="1.000000" stroke="none" 
	d="
M152.547607,22.095787 
	C153.341553,26.848574 153.670334,31.532030 153.541046,36.744827 
	C143.389572,37.208519 133.696182,37.142876 123.964050,36.700119 
	C123.287529,31.603334 122.649742,26.883657 122.011955,22.163982 
	C132.035461,22.118141 142.058960,22.072300 152.547607,22.095787 
z"/>
<path fill="#2E779D" opacity="1.000000" stroke="none" 
	d="
M377.526764,22.103691 
	C377.660645,26.841167 377.329926,31.517326 376.539429,36.740898 
	C366.051788,37.218239 356.023956,37.148159 345.996094,37.078079 
	C347.661987,32.361599 349.327911,27.645117 350.990967,22.547894 
	C359.679474,22.125559 368.370819,22.083965 377.526764,22.103691 
z"/>
<path fill="#27698C" opacity="1.000000" stroke="none" 
	d="
M121.546677,22.095974 
	C122.649742,26.883657 123.287529,31.603334 123.504211,36.801033 
	C115.722824,37.210785 108.362556,37.142506 101.001343,36.640350 
	C100.336487,31.524199 99.672577,26.841923 99.008667,22.159649 
	C106.366241,22.115755 113.723824,22.071861 121.546677,22.095974 
z"/>
<path fill="#256487" opacity="1.000000" stroke="none" 
	d="
M98.543304,22.094746 
	C99.672577,26.841923 100.336487,31.524199 100.544586,36.745094 
	C92.340500,37.635365 84.351959,36.136250 77.094536,40.268867 
	C81.757561,34.738861 78.505013,28.781830 78.018692,22.568604 
	C84.699226,22.118416 91.388580,22.074129 98.543304,22.094746 
z"/>
<path fill="#14445E" opacity="1.000000" stroke="none" 
	d="
M23.091679,199.431885 
	C24.893612,200.636627 26.807997,202.125473 28.369879,203.920959 
	C36.273777,213.007141 44.086052,222.173004 51.965225,231.655457 
	C48.535557,229.104767 44.873615,226.412231 41.649166,223.270676 
	C35.566391,217.344177 29.735498,211.159164 23.468742,205.039505 
	C23.105566,203.284073 23.073568,201.570740 23.091679,199.431885 
z"/>
<path fill="#FDFDFD" opacity="1.000000" stroke="none" 
	d="
M194.530426,410.473694 
	C194.524185,399.472473 194.551025,388.935303 194.649094,378.398743 
	C194.665833,376.599213 194.987305,374.802521 195.461151,372.400879 
	C195.868149,371.200500 195.982040,370.603729 196.095917,370.006958 
	C196.095917,370.006958 196.356140,369.829224 196.320267,369.675842 
	C201.176086,362.951630 207.691254,360.809967 215.828384,360.971741 
	C235.461639,361.362030 255.108780,361.209015 274.748230,361.036896 
	C280.789337,360.983978 285.852112,362.633087 290.269684,367.191162 
	C290.581299,367.304382 290.594727,367.250397 290.600616,367.590973 
	C291.163971,368.796051 291.721436,369.660553 292.322021,370.919006 
	C292.827942,374.237213 293.674896,377.159332 293.691772,380.086243 
	C293.808838,400.382050 293.772186,420.678833 293.746307,440.975281 
	C293.729980,453.788208 287.561127,459.994049 274.883362,460.028748 
	C253.592514,460.087006 232.301651,460.135803 211.010788,460.188629 
	C207.464081,458.884155 203.917389,457.579712 199.995026,455.851044 
	C198.760925,454.585388 197.902466,453.743927 197.044006,452.902466 
	C196.844925,452.395630 196.645828,451.888763 196.300903,450.877686 
	C195.806808,449.903351 195.458557,449.433289 195.110291,448.963226 
	C194.936005,436.288116 194.761749,423.613007 194.530426,410.473694 
z"/>
<path fill="#020202" opacity="1.000000" stroke="none" 
	d="
M211.068848,460.520111 
	C232.301651,460.135803 253.592514,460.087006 274.883362,460.028748 
	C287.561127,459.994049 293.729980,453.788208 293.746307,440.975281 
	C293.772186,420.678833 293.808838,400.382050 293.691772,380.086243 
	C293.674896,377.159332 292.827942,374.237213 292.563660,370.591492 
	C292.863037,369.617676 292.963867,369.365204 293.064728,369.112701 
	C299.346405,370.337250 303.714386,373.973602 306.677917,379.932922 
	C307.002045,391.455566 307.066132,402.753052 307.198242,414.513611 
	C307.197266,427.264893 307.141083,439.553223 307.055115,451.841309 
	C306.988495,461.365845 300.325134,467.987640 290.731689,467.999054 
	C268.804413,468.025146 246.877029,467.985016 224.949783,468.021973 
	C219.051697,468.031921 214.328110,465.953613 211.068848,460.520111 
z"/>
<path fill="#103D54" opacity="1.000000" stroke="none" 
	d="
M197.013031,453.263458 
	C197.902466,453.743927 198.760925,454.585388 199.653641,455.729797 
	C198.785950,455.230011 197.883987,454.427216 197.013031,453.263458 
z"/>
<path fill="#103D54" opacity="1.000000" stroke="none" 
	d="
M194.852753,449.113403 
	C195.458557,449.433289 195.806808,449.903351 196.098618,450.683167 
	C195.559845,450.416443 195.077530,449.840027 194.852753,449.113403 
z"/>
<path fill="#FBFBFC" opacity="1.000000" stroke="none" 
	d="
M198.056152,309.020508 
	C199.434830,307.959473 200.813522,306.898438 202.340912,305.537964 
	C207.072403,304.541840 211.655197,303.845184 216.648087,303.063232 
	C236.462494,303.068604 255.867035,303.246155 275.270966,303.194275 
	C280.718201,303.179688 285.369385,304.641113 289.580353,308.493774 
	C290.311768,309.299927 290.741455,310.035522 291.491852,311.262543 
	C292.436768,313.983978 293.428375,316.182678 293.621613,318.449402 
	C294.463898,328.328644 286.937195,336.203796 276.517822,336.282349 
	C254.888275,336.445374 233.257675,336.464844 211.627502,336.543274 
	C205.083374,336.011078 199.838654,333.297028 196.252106,326.939972 
	C195.723068,325.921387 195.375336,325.457092 195.027618,324.992828 
	C195.105560,321.627136 195.183502,318.261414 195.536591,314.325806 
	C196.559875,312.177399 197.308014,310.598969 198.056152,309.020508 
z"/>
<path fill="#020202" opacity="1.000000" stroke="none" 
	d="
M211.743378,336.919586 
	C233.257675,336.464844 254.888275,336.445374 276.517822,336.282349 
	C286.937195,336.203796 294.463898,328.328644 293.621613,318.449402 
	C293.428375,316.182678 292.436768,313.983978 291.800751,311.365173 
	C297.593536,311.857269 302.173401,314.667725 305.652771,319.820007 
	C306.313507,323.385498 306.718933,326.745117 307.173157,330.545898 
	C303.595795,341.263550 299.665588,344.058136 288.751953,344.061951 
	C267.429535,344.069397 246.107132,344.076538 224.784760,344.051361 
	C219.333572,344.044922 214.671356,342.409943 211.743378,336.919586 
z"/>
<path fill="#14445E" opacity="1.000000" stroke="none" 
	d="
M194.758636,325.000214 
	C195.375336,325.457092 195.723068,325.921387 196.024628,326.692749 
	C195.341614,326.561188 194.704773,326.122559 194.011047,325.372375 
	C194.132675,325.043091 194.311172,325.025330 194.758636,325.000214 
z"/>
<path fill="#103D54" opacity="1.000000" stroke="none" 
	d="
M195.783569,370.032043 
	C195.982040,370.603729 195.868149,371.200500 195.471771,371.934418 
	C195.283249,371.400085 195.377228,370.728577 195.783569,370.032043 
z"/>
<path fill="#000101" opacity="1.000000" stroke="none" 
	d="
M291.081604,274.563354 
	C290.727844,276.284424 290.327606,277.569275 289.787384,279.142944 
	C286.333923,284.728607 281.674744,286.502686 275.380249,286.291656 
	C262.282257,285.852539 249.159607,286.116180 236.047272,286.152344 
	C230.868515,286.166626 227.073547,284.255676 225.699768,278.815369 
	C239.677139,278.471619 253.345673,278.392883 267.224426,278.523987 
	C268.323669,278.202789 269.212708,277.671783 270.409851,277.011597 
	C272.526031,274.946594 274.334076,273.010742 276.426147,271.097290 
	C276.822052,270.414459 276.933899,269.709198 277.069275,268.535339 
	C277.097992,246.707306 277.103119,225.347870 277.347778,203.845993 
	C277.734070,203.167831 277.880798,202.632111 278.027527,202.096405 
	C278.998230,202.123856 279.968933,202.151306 281.297729,202.186646 
	C290.901245,205.936783 291.509674,213.756180 291.101196,222.536835 
	C291.119049,226.025452 291.079681,229.059830 291.098419,232.545349 
	C291.117767,235.698639 291.079071,238.400787 291.097595,241.550018 
	C291.117615,244.368088 291.080353,246.739090 291.097900,249.551270 
	C291.116150,255.682022 291.079529,261.371552 291.096191,267.525818 
	C291.111328,270.036041 291.073242,272.081573 291.081604,274.563354 
z"/>
<path fill="#FDFDFD" opacity="1.000000" stroke="none" 
	d="
M267.014221,278.314117 
	C253.345673,278.392883 239.677139,278.471619 225.546066,278.526733 
	C223.652054,278.406433 222.220581,278.309692 220.239182,277.898682 
	C219.120407,277.451477 218.551544,277.318573 217.982681,277.185638 
	C216.950882,276.466858 215.919067,275.748047 214.582092,274.955383 
	C213.833435,274.127319 213.389969,273.373138 212.798828,272.017944 
	C212.097427,269.946594 211.543732,268.476196 210.990021,267.005829 
	C211.019073,265.931580 211.048126,264.857330 210.968536,263.393921 
	C210.929626,256.309326 210.999374,249.613907 210.960480,242.461044 
	C210.926147,237.306213 211.000443,232.608810 210.964661,227.456482 
	C210.927460,224.296326 211.000320,221.591110 211.077240,218.121063 
	C211.009598,216.911331 210.937912,216.466431 210.866211,216.021545 
	C210.924484,215.853531 210.982742,215.685532 211.101196,214.817780 
	C210.417770,198.384338 215.291046,196.315033 223.468796,194.092270 
	C232.287506,194.090424 240.643051,194.012665 249.455688,194.042694 
	C255.272385,194.112106 260.631958,194.073715 266.286957,194.214935 
	C268.381683,194.948456 270.180969,195.502335 271.980286,196.056198 
	C273.317444,197.838196 274.654633,199.620178 276.063385,201.975647 
	C276.459381,203.028900 276.783813,203.508667 277.108246,203.988434 
	C277.103119,225.347870 277.097992,246.707306 276.795776,268.701294 
	C276.379822,269.915527 276.260986,270.495209 276.142120,271.074890 
	C274.334076,273.010742 272.526031,274.946594 270.063538,276.909119 
	C268.610809,277.395233 267.812531,277.854675 267.014221,278.314117 
z"/>
<path fill="#71797D" opacity="1.000000" stroke="none" 
	d="
M217.985168,277.458954 
	C218.551544,277.318573 219.120407,277.451477 219.809601,277.869324 
	C219.282501,278.013580 218.635071,277.872925 217.985168,277.458954 
z"/>
<path fill="#103D54" opacity="1.000000" stroke="none" 
	d="
M292.992981,368.753021 
	C292.963867,369.365204 292.863037,369.617676 292.520569,370.197601 
	C291.721436,369.660553 291.163971,368.796051 290.605286,367.617188 
	C291.376465,367.666351 292.148834,368.029846 292.992981,368.753021 
z"/>
<path fill="#3E718D" opacity="1.000000" stroke="none" 
	d="
M210.740311,267.208801 
	C211.543732,268.476196 212.097427,269.946594 212.594391,271.753662 
	C211.855286,270.530853 211.172943,268.971313 210.740311,267.208801 
z"/>
<path fill="#256487" opacity="1.000000" stroke="none" 
	d="
M265.991547,194.035309 
	C260.631958,194.073715 255.272385,194.112106 249.441895,193.652557 
	C248.247864,192.428513 247.608032,191.200104 246.787094,191.064026 
	C243.376297,190.498550 239.859146,190.526657 236.473633,189.863953 
	C208.506348,184.389343 182.413483,174.237198 159.252304,157.455460 
	C145.397598,147.416855 132.955719,135.675064 122.104706,122.406586 
	C119.496071,119.216782 118.017326,115.102936 116.476624,111.320526 
	C123.961876,111.291229 130.989441,111.355446 138.015747,111.769241 
	C138.901230,113.803795 139.443008,115.837440 140.733582,117.114227 
	C146.753952,123.070244 152.889252,128.918259 159.154388,134.616959 
	C170.516800,144.952072 183.308624,153.146088 197.439240,159.151260 
	C204.729324,162.249374 212.193436,164.938019 219.701904,167.766815 
	C219.824905,167.721954 220.003403,167.913498 220.035461,168.235779 
	C221.018738,168.774139 221.969925,168.990204 223.344849,169.151276 
	C225.174194,169.235092 226.579834,169.373901 228.046036,169.837799 
	C231.209656,176.126038 236.743668,177.538239 242.743881,177.638947 
	C252.236954,177.798309 261.759552,178.082855 271.219818,177.502274 
	C275.839325,177.218765 280.346405,175.103027 285.070801,174.147461 
	C286.387817,174.736008 287.592804,175.359558 288.680908,175.197662 
	C312.886993,171.595810 335.513062,164.042007 356.329010,150.631027 
	C371.856171,140.627426 385.483704,128.808884 397.481750,114.937042 
	C398.275299,114.019569 398.501099,112.611031 399.448669,111.331848 
	C405.602448,111.269768 411.298492,111.306740 416.994537,111.343719 
	C414.304962,115.744728 412.074646,120.520798 408.842377,124.478561 
	C397.796661,138.003540 384.987244,149.684021 370.625763,159.671005 
	C351.336334,173.084930 330.347260,182.655197 307.297058,187.285980 
	C296.974609,189.359772 286.450806,190.423233 276.032776,192.038101 
	C274.517181,192.273010 273.082153,193.027954 270.954224,193.761566 
	C268.862915,193.999023 267.427216,194.017166 265.991547,194.035309 
z"/>
<path fill="#060607" opacity="1.000000" stroke="none" 
	d="
M284.904358,173.816620 
	C280.346405,175.103027 275.839325,177.218765 271.219818,177.502274 
	C261.759552,178.082855 252.236954,177.798309 242.743881,177.638947 
	C236.743668,177.538239 231.209656,176.126038 228.515335,169.787689 
	C239.240433,169.404541 249.557693,169.477036 259.872955,169.365768 
	C269.952606,169.257034 276.740753,162.611771 277.213379,152.625946 
	C278.603516,123.254593 299.395874,103.387497 328.901947,103.324318 
	C352.696075,103.273369 376.490631,103.367416 400.284576,103.278702 
	C410.541534,103.240456 417.435669,96.298355 417.639343,86.071442 
	C417.732117,81.414230 417.848694,76.744522 417.621826,72.096718 
	C417.195007,63.353504 416.526855,54.622070 415.958984,45.885742 
	C422.309784,45.313286 426.113373,49.086758 429.663269,53.969261 
	C430.340942,59.275642 430.977875,64.365486 431.098450,69.467529 
	C431.294464,77.762939 431.197784,86.066643 431.140625,94.366272 
	C431.082153,102.855263 426.032410,109.095749 417.363831,111.221100 
	C411.298492,111.306740 405.602448,111.269768 398.988922,111.235428 
	C388.711548,111.301361 379.351624,111.364662 369.531860,111.333679 
	C357.093933,111.470451 345.051666,110.999153 333.152008,112.087288 
	C312.164978,114.006401 293.277802,133.704681 291.699005,154.371979 
	C290.922394,161.654144 291.040497,168.818802 284.904358,173.816620 
z"/>
<path fill="#3E718D" opacity="1.000000" stroke="none" 
	d="
M266.286957,194.214951 
	C267.427216,194.017166 268.862915,193.999023 270.648254,193.991364 
	C271.272186,194.503281 271.546478,195.004715 271.900513,195.781189 
	C270.180969,195.502335 268.381683,194.948456 266.286957,194.214951 
z"/>
<path fill="#56595A" opacity="1.000000" stroke="none" 
	d="
M277.347778,203.845993 
	C276.783813,203.508667 276.459381,203.028900 276.248718,202.270142 
	C276.733856,202.001770 277.105255,202.012375 277.752106,202.059692 
	C277.880798,202.632111 277.734070,203.167831 277.347778,203.845993 
z"/>
<path fill="#FDFEFE" opacity="1.000000" stroke="none" 
	d="
M415.683411,45.715210 
	C416.526855,54.622070 417.195007,63.353504 417.621826,72.096718 
	C417.848694,76.744522 417.732117,81.414230 417.639343,86.071442 
	C417.435669,96.298355 410.541534,103.240456 400.284576,103.278702 
	C376.490631,103.367416 352.696075,103.273369 328.901947,103.324318 
	C299.395874,103.387497 278.603516,123.254593 277.213379,152.625946 
	C276.740753,162.611771 269.952606,169.257034 259.872955,169.365768 
	C249.557693,169.477036 239.240433,169.404541 228.454758,169.462585 
	C226.579834,169.373901 225.174194,169.235092 223.178986,168.852112 
	C221.727402,168.376450 220.865402,168.144974 220.003403,167.913498 
	C220.003403,167.913498 219.824905,167.721954 219.532593,167.455276 
	C213.689865,163.257706 211.620041,157.892059 210.852432,151.117569 
	C210.045761,143.998230 208.376404,136.631927 205.336227,130.199600 
	C201.720901,122.550354 196.791763,115.254044 187.998367,111.613106 
	C181.291290,106.417229 173.715195,103.693703 165.745499,103.596222 
	C139.534256,103.275635 113.316063,103.523285 87.100540,103.552643 
	C85.694969,103.330414 84.289398,103.108192 82.321228,102.628876 
	C81.172676,102.232719 80.586739,102.093651 80.000793,101.954590 
	C79.538795,101.636772 79.076797,101.318954 78.223953,100.692062 
	C76.955765,99.828178 76.078415,99.273376 75.201073,98.718567 
	C75.201073,98.718567 75.166328,98.834953 75.168579,98.505600 
	C74.453674,97.433487 73.736526,96.690727 73.019379,95.947960 
	C72.830086,95.432411 72.640785,94.916870 72.288315,93.889709 
	C71.774483,92.908478 71.423836,92.438850 71.073181,91.969231 
	C70.930710,82.954971 70.788231,73.940720 70.562935,64.465027 
	C71.091171,58.162125 71.702225,52.320667 72.586517,45.931007 
	C73.285835,44.605213 73.711929,43.827625 74.138016,43.050034 
	C75.045929,42.304642 75.953835,41.559246 76.978134,40.541359 
	C84.351959,36.136250 92.340500,37.635365 100.545532,37.178974 
	C108.362556,37.142506 115.722824,37.210785 123.542938,37.178146 
	C133.696182,37.142876 143.389572,37.208519 153.543549,37.176537 
	C164.696625,37.141693 175.389084,37.204479 186.542786,37.173061 
	C202.362701,37.139122 217.721390,37.199387 233.541550,37.167198 
	C256.361023,37.141560 278.719055,37.208374 301.536957,37.175957 
	C316.357147,37.145741 330.717438,37.214756 345.536926,37.180923 
	C356.023956,37.148159 366.051788,37.218239 376.538666,37.183834 
	C384.433380,37.168556 391.885956,36.991249 399.297668,37.459789 
	C402.984283,37.692837 406.596039,39.110325 410.617981,40.039330 
	C412.465454,41.905991 413.936646,43.725330 415.683411,45.715210 
z"/>
<path fill="#245F7F" opacity="1.000000" stroke="none" 
	d="
M209.988739,206.002853 
	C185.511871,199.886795 163.625259,188.274063 143.445419,173.531265 
	C128.583313,162.673447 114.993370,150.268707 104.379753,134.983383 
	C98.370239,126.328690 92.353325,117.678497 86.457939,108.946472 
	C86.019318,108.296799 86.535133,107.002724 87.234070,106.112061 
	C92.750786,111.990364 99.609367,110.890182 106.005066,111.763908 
	C106.601982,113.612015 106.925644,115.305046 107.842445,116.567268 
	C110.952820,120.849533 114.327408,124.938637 117.502930,129.175079 
	C127.748100,142.843140 140.350128,154.035583 154.082352,164.028381 
	C169.086884,174.947052 185.348206,183.393295 203.103546,188.950317 
	C207.520966,190.332901 211.747040,192.326874 215.898926,194.337067 
	C213.820755,198.423843 211.904755,202.213348 209.988739,206.002853 
z"/>
<path fill="#030303" opacity="1.000000" stroke="none" 
	d="
M106.003632,111.411407 
	C99.609367,110.890182 92.750786,111.990364 87.572723,106.056091 
	C87.246773,105.311127 87.208992,104.725983 87.135880,103.846741 
	C113.316063,103.523285 139.534256,103.275635 165.745499,103.596222 
	C173.715195,103.693703 181.291290,106.417229 187.542252,111.597076 
	C185.565063,111.895905 183.908325,111.890678 182.251740,111.873802 
	C167.506821,111.723587 152.761917,111.571327 138.017014,111.419670 
	C130.989441,111.355446 123.961876,111.291229 116.029816,111.219208 
	C112.084755,111.278069 109.044197,111.344734 106.003632,111.411407 
z"/>
<path fill="#3E718D" opacity="1.000000" stroke="none" 
	d="
M209.993927,206.440582 
	C211.904755,202.213348 213.820755,198.423843 216.279785,194.327576 
	C218.883728,194.019318 220.944687,194.017822 223.005630,194.016342 
	C215.291046,196.315033 210.417770,198.384338 211.043686,214.557312 
	C210.617035,212.290512 210.308060,209.584412 209.993927,206.440582 
z"/>
<path fill="#245F7F" opacity="1.000000" stroke="none" 
	d="
M75.177277,99.090889 
	C76.078415,99.273376 76.955765,99.828178 77.941528,100.682159 
	C77.084465,100.475296 76.118973,99.969254 75.177277,99.090889 
z"/>
<path fill="#245F7F" opacity="1.000000" stroke="none" 
	d="
M73.015060,96.322350 
	C73.736526,96.690727 74.453674,97.433487 75.226608,98.487701 
	C74.525185,98.098358 73.767967,97.397552 73.015060,96.322350 
z"/>
<path fill="#245F7F" opacity="1.000000" stroke="none" 
	d="
M80.029404,102.255142 
	C80.586739,102.093651 81.172676,102.232719 81.893097,102.652588 
	C81.371056,102.807503 80.714531,102.681602 80.029404,102.255142 
z"/>
<path fill="#245F7F" opacity="1.000000" stroke="none" 
	d="
M70.830811,92.136505 
	C71.423836,92.438850 71.774483,92.908478 72.090828,93.688484 
	C71.567154,93.433846 71.077797,92.868820 70.830811,92.136505 
z"/>
<path fill="#245F7F" opacity="1.000000" stroke="none" 
	d="
M210.644333,216.198944 
	C210.937912,216.466431 211.009598,216.911331 210.973160,217.680984 
	C210.865036,218.005753 210.425079,218.009094 210.205017,218.001984 
	C210.130798,217.455368 210.276627,216.915863 210.644333,216.198944 
z"/>
<path fill="#14445E" opacity="1.000000" stroke="none" 
	d="
M197.692963,308.955017 
	C197.308014,310.598969 196.559875,312.177399 195.535645,313.930908 
	C192.263397,312.274139 189.488327,309.680481 186.234619,308.736267 
	C167.466568,303.289795 149.145004,297.170166 131.502792,288.280365 
	C117.865662,281.408752 104.687561,273.971832 91.882591,265.818481 
	C83.130592,260.245758 74.609001,254.190491 66.622093,247.580414 
	C61.505424,243.345779 57.549450,237.708664 53.036655,232.350128 
	C54.813919,232.980530 56.817146,233.721390 58.410419,234.980850 
	C68.128777,242.663101 77.374268,251.006516 87.505852,258.087189 
	C100.344604,267.059875 113.545784,275.638062 127.233963,283.225891 
	C135.774582,287.960266 145.496750,290.567902 154.699692,294.101257 
	C162.049805,296.923218 169.361954,299.859100 176.796768,302.439606 
	C181.117874,303.939423 185.678146,304.735809 190.071732,306.046692 
	C192.552902,306.787048 194.914368,307.928650 197.692963,308.955017 
z"/>
<path fill="#256487" opacity="1.000000" stroke="none" 
	d="
M73.752213,43.099072 
	C73.711929,43.827625 73.285835,44.605213 72.554443,45.542274 
	C72.621559,44.850533 72.993988,43.999321 73.752213,43.099072 
z"/>
<path fill="#71797D" opacity="1.000000" stroke="none" 
	d="
M267.224426,278.523987 
	C267.812531,277.854675 268.610809,277.395233 269.755432,277.038269 
	C269.212708,277.671783 268.323669,278.202789 267.224426,278.523987 
z"/>
<path fill="#56595A" opacity="1.000000" stroke="none" 
	d="
M276.426147,271.097290 
	C276.260986,270.495209 276.379822,269.915527 276.772217,269.169922 
	C276.933899,269.709198 276.822052,270.414459 276.426147,271.097290 
z"/>
<path fill="#246284" opacity="1.000000" stroke="none" 
	d="
M223.468796,194.092270 
	C220.944687,194.017822 218.883728,194.019318 216.441925,194.030304 
	C211.747040,192.326874 207.520966,190.332901 203.103546,188.950317 
	C185.348206,183.393295 169.086884,174.947052 154.082352,164.028381 
	C140.350128,154.035583 127.748100,142.843140 117.502930,129.175079 
	C114.327408,124.938637 110.952820,120.849533 107.842445,116.567268 
	C106.925644,115.305046 106.601982,113.612015 106.005066,111.763916 
	C109.044197,111.344734 112.084755,111.278069 115.572136,111.312729 
	C118.017326,115.102936 119.496071,119.216782 122.104706,122.406586 
	C132.955719,135.675064 145.397598,147.416855 159.252304,157.455460 
	C182.413483,174.237198 208.506348,184.389343 236.473633,189.863953 
	C239.859146,190.526657 243.376297,190.498550 246.787094,191.064026 
	C247.608032,191.200104 248.247864,192.428513 248.984787,193.544739 
	C240.643051,194.012665 232.287506,194.090424 223.468796,194.092270 
z"/>
<path fill="#27698C" opacity="1.000000" stroke="none" 
	d="
M369.991730,111.427956 
	C379.351624,111.364662 388.711548,111.301361 398.531189,111.334488 
	C398.501099,112.611031 398.275299,114.019569 397.481750,114.937042 
	C385.483704,128.808884 371.856171,140.627426 356.329010,150.631027 
	C335.513062,164.042007 312.886993,171.595810 288.680908,175.197662 
	C287.592804,175.359558 286.387817,174.736008 285.070801,174.147461 
	C291.040497,168.818802 290.922394,161.654144 292.140747,154.369232 
	C301.462646,151.690109 310.350677,149.923920 318.815674,146.952591 
	C337.138916,140.520874 353.003784,129.824692 367.384552,116.921066 
	C368.776154,115.672394 369.147034,113.286140 369.991730,111.427956 
z"/>
<path fill="#2B6C8E" opacity="1.000000" stroke="none" 
	d="
M138.015747,111.769241 
	C152.761917,111.571327 167.506821,111.723587 182.251740,111.873802 
	C183.908325,111.890678 185.565063,111.895905 187.677841,111.922562 
	C196.791763,115.254044 201.720901,122.550354 205.336227,130.199600 
	C208.376404,136.631927 210.045761,143.998230 210.852432,151.117569 
	C211.620041,157.892059 213.689865,163.257706 219.409592,167.500122 
	C212.193436,164.938019 204.729324,162.249374 197.439240,159.151260 
	C183.308624,153.146088 170.516800,144.952072 159.154388,134.616959 
	C152.889252,128.918259 146.753952,123.070244 140.733582,117.114227 
	C139.443008,115.837440 138.901230,113.803795 138.015747,111.769241 
z"/>
<path fill="#2B6C8E" opacity="1.000000" stroke="none" 
	d="
M220.035461,168.235779 
	C220.865402,168.144974 221.727402,168.376450 222.755264,168.907089 
	C221.969925,168.990204 221.018738,168.774139 220.035461,168.235779 
z"/>
<path fill="#286E92" opacity="1.000000" stroke="none" 
	d="
M369.531860,111.333679 
	C369.147034,113.286140 368.776154,115.672394 367.384552,116.921066 
	C353.003784,129.824692 337.138916,140.520874 318.815674,146.952591 
	C310.350677,149.923920 301.462646,151.690109 292.324646,154.005463 
	C293.277802,133.704681 312.164978,114.006401 333.152008,112.087288 
	C345.051666,110.999153 357.093933,111.470451 369.531860,111.333679 
z"/>
</svg>